<svg xmlns="http://www.w3.org/2000/svg" xml:space="preserve" fill-rule="evenodd" style="enable-background:new 0 0 48 48"
     viewBox="0 0 48 48"><path d="M35.054 38.836A18.422 18.422 0 0 1 24 42.5C13.783 42.5 5.5 34.217 5.5 24c0-2.917.675-5.676 1.878-8.13M13.869 8.518A18.415 18.415 0 0 1 24 5.5c10.217 0 18.5 8.283 18.5 18.5 0 2.941-.686 5.721-1.907 8.19" style="fill:none;stroke-rule:evenodd;stroke-width:3;stroke-linecap:round;stroke-linejoin:round"/>
    <path
        d="M34 23c0-1.574-.576-3.038-1.558-4.275.442-1.368.93-3.771-.242-5.648-2.251 0-3.73 1.545-4.436 2.514C26.602 15.213 25.333 15 24 15s-2.602.213-3.764.591c-.706-.969-2.184-2.514-4.436-2.514-1.328 2.126-.526 4.45-.073 5.43C14.638 19.788 14 21.334 14 23c0 3.78 3.281 6.94 7.686 7.776-1.309.673-2.287 1.896-2.587 3.38h-1.315c-1.297 0-1.801-.526-2.502-1.415-.692-.889-1.437-1.488-2.331-1.736-.482-.051-.806.316-.386.641 1.419.966 1.516 2.548 2.085 3.583.518.932 1.579 1.771 2.779 1.771H19v5.942h10v-7.806c0-1.908-1.098-3.544-2.686-4.36C30.719 29.94 34 26.78 34 23z"/></svg>