<svg width="300" height="150" viewBox="0 0 300 150" fill="none" xmlns="http://www.w3.org/2000/svg">
<g clip-path="url(#clip0_1_2)">
<path d="M58.2 144L23 134.4L29.2 111.2V49.6H50.6L9 45.6L11.8 15.6L92.4 23.2L89.6 53.4L59.4 50.4V109.2H45.4L66 114.8L58.2 144ZM20 33.6L81 39.4L81.4 35.4L20.4 29.6L20 33.6ZM42.4 59.2V99.4H46.4V59.2H42.4ZM35.8 124.6L52 129L53 125L36.8 120.6L35.8 124.6ZM157.453 144.4L109.453 131.4L124.053 104L174.453 117.8L147.453 85.8L136.853 94.6L98.4531 48.4L115.053 34.2L120.853 29.4L121.453 28.8L143.053 10.6L191.053 23.6L176.453 51L129.253 38L152.453 66L162.653 57L192.253 92V115.2L181.653 124L157.453 144.4ZM173.453 36.6L175.253 33L141.853 23.8L138.253 27L173.453 36.6ZM114.653 47.2L141.053 79.2L144.053 76.6L117.453 44.6L114.653 47.2ZM155.853 75.6L184.053 109L187.053 106.4L158.853 73L155.853 75.6ZM127.053 118.4L125.253 122L158.653 131.2L162.253 128L127.053 118.4ZM198.258 134.2L206.058 105L209.058 105.8V50.8L200.258 48.4L208.258 19.2L243.458 28.8L239.258 44.2V68.2L254.058 72.4V38.8H284.258V112.8L290.858 114.6L283.058 143.8L247.858 134.2L254.058 111V78.8L250.058 93.6L239.258 90.6V111H228.058L244.258 115.4L236.458 144.6L198.258 134.2ZM211.658 124.2L230.058 129.2L231.058 125.2L225.858 123.8V78L243.058 82.8L244.058 78.8L225.858 73.8V41.6L229.658 42.6L230.658 38.4L214.058 34.2L213.058 38.2L221.858 40.6V122.8L212.658 120.2L211.658 124.2ZM261.058 124.6L277.258 128.8L278.058 124.8L271.258 123V48.6H267.258V122L262.058 120.6L261.058 124.6Z" fill="white"/>
</g>
<defs>
<clipPath id="clip0_1_2">
<rect width="300" height="150" fill="white"/>
</clipPath>
</defs>
</svg>
